# xmcd
#
# Track frame offsets: 
#        150
#        18090
#        30693
#        44629
#        63883
#        66924
#        89479
#        102978
#        117596
#        122844
#        145088
#        164886
#        186780
#
# Disc length: 2775 seconds
#
# Revision: 1
# Processed by: cddbd v1.5.2PL0 Copyright (c) Steve Scherf et al.
# Submitted via: ExactAudioCopy v0.99pb5
#
DISCID=be0ad50d
DTITLE=Taylor McFerrin - Early Riser
DYEAR=2014
DGENRE=Jazz
TTITLE0=Postpartum
TTITLE1=Degrees Of Light
TTITLE2=The Antidote (feat. Nai Palm)
TTITLE3=Florasia
TTITLE4=4 AM
TTITLE5=Stepps
TTITLE6=Already There (feat. Robert Glasper, Thundercat and Marcus Gil
TTITLE6=more)
TTITLE7=Decisions (feat. Emily King)
TTITLE8=Blind Aesthetics
TTITLE9=Place in My Heart (feat. RYAT)
TTITLE10=Invisible/Visible (feat. Bobby McFerrin and Cesar Mariano)
TTITLE11=PLS DNT LSTN
TTITLE12=My Queen (feat. Vincent Parker)
EXTD=YEAR: 2014
EXTT0=
EXTT1=
EXTT2=
EXTT3=
EXTT4=
EXTT5=
EXTT6=
EXTT7=
EXTT8=
EXTT9=
EXTT10=
EXTT11=
EXTT12=
PLAYORDER=
